<mxfile host="app.diagrams.net" modified="2023-02-04T14:08:58.540Z" agent="5.0 (Windows NT 10.0; Win64; x64) AppleWebKit/537.36 (KHTML, like Gecko) Chrome/108.0.0.0 YaBrowser/23.1.1.1138 Yowser/2.5 Safari/537.36" etag="36AUPcEpuh3qSR5N5Uoy" version="20.6.0" type="github">
  <diagram id="0kpuXqwREHGy2fi9k3ZO" name="Страница 1">
    <mxGraphModel dx="1374" dy="1958" grid="1" gridSize="10" guides="1" tooltips="1" connect="1" arrows="1" fold="1" page="1" pageScale="1" pageWidth="827" pageHeight="1169" math="0" shadow="0">
      <root>
        <mxCell id="0" />
        <mxCell id="1" parent="0" />
        <mxCell id="ArgeGSA9S2a82x05cbbP-10" value="" style="edgeStyle=orthogonalEdgeStyle;rounded=0;orthogonalLoop=1;jettySize=auto;html=1;" parent="1" source="ArgeGSA9S2a82x05cbbP-1" target="ArgeGSA9S2a82x05cbbP-9" edge="1">
          <mxGeometry relative="1" as="geometry" />
        </mxCell>
        <mxCell id="ArgeGSA9S2a82x05cbbP-1" value="" style="points=[[0.145,0.145,0],[0.5,0,0],[0.855,0.145,0],[1,0.5,0],[0.855,0.855,0],[0.5,1,0],[0.145,0.855,0],[0,0.5,0]];shape=mxgraph.bpmn.event;html=1;verticalLabelPosition=bottom;labelBackgroundColor=#ffffff;verticalAlign=top;align=center;perimeter=ellipsePerimeter;outlineConnect=0;aspect=fixed;outline=standard;symbol=message;" parent="1" vertex="1">
          <mxGeometry x="80" y="50" width="50" height="50" as="geometry" />
        </mxCell>
        <mxCell id="ArgeGSA9S2a82x05cbbP-2" value="Клиент нажал&lt;br&gt;кнопку регистрации&lt;br&gt;" style="text;html=1;align=center;verticalAlign=middle;resizable=0;points=[];autosize=1;strokeColor=none;fillColor=none;" parent="1" vertex="1">
          <mxGeometry x="40" y="100" width="130" height="40" as="geometry" />
        </mxCell>
        <mxCell id="ArgeGSA9S2a82x05cbbP-13" style="edgeStyle=orthogonalEdgeStyle;rounded=0;orthogonalLoop=1;jettySize=auto;html=1;entryX=0;entryY=0.5;entryDx=0;entryDy=0;" parent="1" source="ArgeGSA9S2a82x05cbbP-9" target="ArgeGSA9S2a82x05cbbP-11" edge="1">
          <mxGeometry relative="1" as="geometry">
            <Array as="points">
              <mxPoint x="255" y="10" />
              <mxPoint x="300" y="10" />
              <mxPoint x="300" y="5" />
            </Array>
          </mxGeometry>
        </mxCell>
        <mxCell id="ArgeGSA9S2a82x05cbbP-14" style="edgeStyle=orthogonalEdgeStyle;rounded=0;orthogonalLoop=1;jettySize=auto;html=1;entryX=0.008;entryY=0.671;entryDx=0;entryDy=0;entryPerimeter=0;" parent="1" source="ArgeGSA9S2a82x05cbbP-9" target="ArgeGSA9S2a82x05cbbP-12" edge="1">
          <mxGeometry relative="1" as="geometry">
            <Array as="points">
              <mxPoint x="255" y="160" />
              <mxPoint x="300" y="160" />
              <mxPoint x="300" y="163" />
              <mxPoint x="321" y="163" />
            </Array>
          </mxGeometry>
        </mxCell>
        <mxCell id="ArgeGSA9S2a82x05cbbP-9" value="" style="points=[[0.25,0.25,0],[0.5,0,0],[0.75,0.25,0],[1,0.5,0],[0.75,0.75,0],[0.5,1,0],[0.25,0.75,0],[0,0.5,0]];shape=mxgraph.bpmn.gateway2;html=1;verticalLabelPosition=bottom;labelBackgroundColor=#ffffff;verticalAlign=top;align=center;perimeter=rhombusPerimeter;outlineConnect=0;outline=end;symbol=general;" parent="1" vertex="1">
          <mxGeometry x="230" y="50" width="50" height="50" as="geometry" />
        </mxCell>
        <mxCell id="ArgeGSA9S2a82x05cbbP-21" style="edgeStyle=orthogonalEdgeStyle;rounded=0;orthogonalLoop=1;jettySize=auto;html=1;entryX=0.5;entryY=0;entryDx=0;entryDy=0;" parent="1" source="ArgeGSA9S2a82x05cbbP-11" target="ArgeGSA9S2a82x05cbbP-20" edge="1">
          <mxGeometry relative="1" as="geometry" />
        </mxCell>
        <mxCell id="ArgeGSA9S2a82x05cbbP-11" value="Авторизация" style="rounded=1;whiteSpace=wrap;html=1;container=1;collapsible=0;absoluteArcSize=1;arcSize=20;childLayout=stackLayout;horizontal=1;horizontalStack=0;resizeParent=1;resizeParentMax=0;resizeLast=0;" parent="1" vertex="1">
          <mxGeometry x="320" y="-30" width="120" height="70" as="geometry" />
        </mxCell>
        <mxCell id="ArgeGSA9S2a82x05cbbP-23" style="edgeStyle=orthogonalEdgeStyle;rounded=0;orthogonalLoop=1;jettySize=auto;html=1;exitX=1;exitY=0.5;exitDx=0;exitDy=0;entryX=0.558;entryY=1;entryDx=0;entryDy=0;entryPerimeter=0;" parent="1" source="ArgeGSA9S2a82x05cbbP-12" target="ArgeGSA9S2a82x05cbbP-20" edge="1">
          <mxGeometry relative="1" as="geometry" />
        </mxCell>
        <mxCell id="ArgeGSA9S2a82x05cbbP-12" value="регистрация по&amp;nbsp;&lt;br&gt;номеру&lt;br&gt;телефона" style="rounded=1;whiteSpace=wrap;html=1;container=1;collapsible=0;absoluteArcSize=1;arcSize=20;childLayout=stackLayout;horizontal=1;horizontalStack=0;resizeParent=1;resizeParentMax=0;resizeLast=0;" parent="1" vertex="1">
          <mxGeometry x="320" y="110" width="120" height="70" as="geometry" />
        </mxCell>
        <mxCell id="ArgeGSA9S2a82x05cbbP-25" style="edgeStyle=orthogonalEdgeStyle;rounded=0;orthogonalLoop=1;jettySize=auto;html=1;entryX=0;entryY=0.5;entryDx=0;entryDy=0;entryPerimeter=0;" parent="1" source="ArgeGSA9S2a82x05cbbP-20" target="ArgeGSA9S2a82x05cbbP-24" edge="1">
          <mxGeometry relative="1" as="geometry" />
        </mxCell>
        <mxCell id="ArgeGSA9S2a82x05cbbP-20" value="Система проверяет&lt;br&gt;наличие заполненных данных" style="rounded=1;whiteSpace=wrap;html=1;container=1;collapsible=0;absoluteArcSize=1;arcSize=20;childLayout=stackLayout;horizontal=1;horizontalStack=0;resizeParent=1;resizeParentMax=0;resizeLast=0;" parent="1" vertex="1">
          <mxGeometry x="520" y="50" width="120" height="70" as="geometry" />
        </mxCell>
        <mxCell id="ArgeGSA9S2a82x05cbbP-28" style="edgeStyle=orthogonalEdgeStyle;rounded=0;orthogonalLoop=1;jettySize=auto;html=1;exitX=1;exitY=0.5;exitDx=0;exitDy=0;exitPerimeter=0;entryX=0;entryY=0.5;entryDx=0;entryDy=0;" parent="1" source="ArgeGSA9S2a82x05cbbP-24" target="ArgeGSA9S2a82x05cbbP-27" edge="1">
          <mxGeometry relative="1" as="geometry" />
        </mxCell>
        <mxCell id="ArgeGSA9S2a82x05cbbP-31" style="edgeStyle=orthogonalEdgeStyle;rounded=0;orthogonalLoop=1;jettySize=auto;html=1;entryX=0.125;entryY=-0.014;entryDx=0;entryDy=0;entryPerimeter=0;" parent="1" source="ArgeGSA9S2a82x05cbbP-24" target="ArgeGSA9S2a82x05cbbP-30" edge="1">
          <mxGeometry relative="1" as="geometry" />
        </mxCell>
        <mxCell id="ArgeGSA9S2a82x05cbbP-24" value="" style="points=[[0.25,0.25,0],[0.5,0,0],[0.75,0.25,0],[1,0.5,0],[0.75,0.75,0],[0.5,1,0],[0.25,0.75,0],[0,0.5,0]];shape=mxgraph.bpmn.gateway2;html=1;verticalLabelPosition=bottom;labelBackgroundColor=#ffffff;verticalAlign=top;align=center;perimeter=rhombusPerimeter;outlineConnect=0;outline=end;symbol=general;" parent="1" vertex="1">
          <mxGeometry x="710" y="60" width="50" height="50" as="geometry" />
        </mxCell>
        <mxCell id="ArgeGSA9S2a82x05cbbP-26" value="Контактные&lt;br&gt;&amp;nbsp;данные &lt;br&gt;заполнены ?" style="text;html=1;align=center;verticalAlign=middle;resizable=0;points=[];autosize=1;strokeColor=none;fillColor=none;" parent="1" vertex="1">
          <mxGeometry x="700" width="90" height="60" as="geometry" />
        </mxCell>
        <mxCell id="ArgeGSA9S2a82x05cbbP-35" style="edgeStyle=orthogonalEdgeStyle;rounded=0;orthogonalLoop=1;jettySize=auto;html=1;exitX=1;exitY=0.5;exitDx=0;exitDy=0;entryX=0;entryY=0.5;entryDx=0;entryDy=0;" parent="1" source="ArgeGSA9S2a82x05cbbP-27" target="ArgeGSA9S2a82x05cbbP-34" edge="1">
          <mxGeometry relative="1" as="geometry" />
        </mxCell>
        <mxCell id="ArgeGSA9S2a82x05cbbP-27" value="Клиент выбирает&amp;nbsp;&lt;br&gt;дату и тип номера" style="rounded=1;whiteSpace=wrap;html=1;container=1;collapsible=0;absoluteArcSize=1;arcSize=20;childLayout=stackLayout;horizontal=1;horizontalStack=0;resizeParent=1;resizeParentMax=0;resizeLast=0;" parent="1" vertex="1">
          <mxGeometry x="880" y="50" width="120" height="70" as="geometry" />
        </mxCell>
        <mxCell id="ArgeGSA9S2a82x05cbbP-29" value="да" style="text;html=1;align=center;verticalAlign=middle;resizable=0;points=[];autosize=1;strokeColor=none;fillColor=none;" parent="1" vertex="1">
          <mxGeometry x="790" y="55" width="40" height="30" as="geometry" />
        </mxCell>
        <mxCell id="ArgeGSA9S2a82x05cbbP-33" style="edgeStyle=orthogonalEdgeStyle;rounded=0;orthogonalLoop=1;jettySize=auto;html=1;entryX=0.5;entryY=1;entryDx=0;entryDy=0;" parent="1" source="ArgeGSA9S2a82x05cbbP-30" target="ArgeGSA9S2a82x05cbbP-27" edge="1">
          <mxGeometry relative="1" as="geometry" />
        </mxCell>
        <mxCell id="ArgeGSA9S2a82x05cbbP-30" value="Предоставить&lt;br&gt;возможность&amp;nbsp;&lt;br&gt;внести контактные данные" style="rounded=1;whiteSpace=wrap;html=1;container=1;collapsible=0;absoluteArcSize=1;arcSize=20;childLayout=stackLayout;horizontal=1;horizontalStack=0;resizeParent=1;resizeParentMax=0;resizeLast=0;" parent="1" vertex="1">
          <mxGeometry x="720" y="180" width="120" height="70" as="geometry" />
        </mxCell>
        <mxCell id="ArgeGSA9S2a82x05cbbP-32" value="нет" style="text;html=1;align=center;verticalAlign=middle;resizable=0;points=[];autosize=1;strokeColor=none;fillColor=none;" parent="1" vertex="1">
          <mxGeometry x="730" y="105" width="40" height="30" as="geometry" />
        </mxCell>
        <mxCell id="ArgeGSA9S2a82x05cbbP-37" style="edgeStyle=orthogonalEdgeStyle;rounded=0;orthogonalLoop=1;jettySize=auto;html=1;entryX=0.5;entryY=0;entryDx=0;entryDy=0;entryPerimeter=0;" parent="1" source="ArgeGSA9S2a82x05cbbP-34" target="ArgeGSA9S2a82x05cbbP-36" edge="1">
          <mxGeometry relative="1" as="geometry">
            <Array as="points">
              <mxPoint x="1120" y="260" />
              <mxPoint x="255" y="260" />
            </Array>
          </mxGeometry>
        </mxCell>
        <mxCell id="ArgeGSA9S2a82x05cbbP-34" value="Система предлагает&lt;br&gt;информацию&lt;br&gt;о доступных&amp;nbsp;&lt;br&gt;номерах" style="rounded=1;whiteSpace=wrap;html=1;container=1;collapsible=0;absoluteArcSize=1;arcSize=20;childLayout=stackLayout;horizontal=1;horizontalStack=0;resizeParent=1;resizeParentMax=0;resizeLast=0;" parent="1" vertex="1">
          <mxGeometry x="1060" y="50" width="120" height="70" as="geometry" />
        </mxCell>
        <mxCell id="ArgeGSA9S2a82x05cbbP-43" style="edgeStyle=orthogonalEdgeStyle;rounded=0;orthogonalLoop=1;jettySize=auto;html=1;exitX=0.5;exitY=1;exitDx=0;exitDy=0;exitPerimeter=0;entryX=0.117;entryY=0.014;entryDx=0;entryDy=0;entryPerimeter=0;" parent="1" source="ArgeGSA9S2a82x05cbbP-36" target="ArgeGSA9S2a82x05cbbP-42" edge="1">
          <mxGeometry relative="1" as="geometry" />
        </mxCell>
        <mxCell id="ArgeGSA9S2a82x05cbbP-70" style="edgeStyle=orthogonalEdgeStyle;rounded=0;orthogonalLoop=1;jettySize=auto;html=1;entryX=0;entryY=0.5;entryDx=0;entryDy=0;entryPerimeter=0;" parent="1" source="ArgeGSA9S2a82x05cbbP-36" target="ArgeGSA9S2a82x05cbbP-69" edge="1">
          <mxGeometry relative="1" as="geometry" />
        </mxCell>
        <mxCell id="ArgeGSA9S2a82x05cbbP-36" value="" style="points=[[0.25,0.25,0],[0.5,0,0],[0.75,0.25,0],[1,0.5,0],[0.75,0.75,0],[0.5,1,0],[0.25,0.75,0],[0,0.5,0]];shape=mxgraph.bpmn.gateway2;html=1;verticalLabelPosition=bottom;labelBackgroundColor=#ffffff;verticalAlign=top;align=center;perimeter=rhombusPerimeter;outlineConnect=0;outline=end;symbol=general;" parent="1" vertex="1">
          <mxGeometry x="230" y="320" width="50" height="50" as="geometry" />
        </mxCell>
        <mxCell id="ArgeGSA9S2a82x05cbbP-38" value="свободные &lt;br&gt;номера&lt;br&gt;на выбранную&lt;br&gt;дату есть?" style="text;html=1;align=center;verticalAlign=middle;resizable=0;points=[];autosize=1;strokeColor=none;fillColor=none;" parent="1" vertex="1">
          <mxGeometry x="130" y="310" width="100" height="70" as="geometry" />
        </mxCell>
        <mxCell id="ArgeGSA9S2a82x05cbbP-84" style="edgeStyle=orthogonalEdgeStyle;rounded=0;orthogonalLoop=1;jettySize=auto;html=1;exitX=1;exitY=0.5;exitDx=0;exitDy=0;entryX=0;entryY=0.5;entryDx=0;entryDy=0;entryPerimeter=0;" parent="1" source="ArgeGSA9S2a82x05cbbP-39" target="ArgeGSA9S2a82x05cbbP-59" edge="1">
          <mxGeometry relative="1" as="geometry" />
        </mxCell>
        <mxCell id="ArgeGSA9S2a82x05cbbP-39" value="Система предлагает совершить оплату&lt;br&gt;на бронирвание" style="rounded=1;whiteSpace=wrap;html=1;container=1;collapsible=0;absoluteArcSize=1;arcSize=20;childLayout=stackLayout;horizontal=1;horizontalStack=0;resizeParent=1;resizeParentMax=0;resizeLast=0;" parent="1" vertex="1">
          <mxGeometry x="770" y="355" width="120" height="70" as="geometry" />
        </mxCell>
        <mxCell id="ArgeGSA9S2a82x05cbbP-41" value="да" style="text;html=1;align=center;verticalAlign=middle;resizable=0;points=[];autosize=1;strokeColor=none;fillColor=none;" parent="1" vertex="1">
          <mxGeometry x="270" y="320" width="40" height="30" as="geometry" />
        </mxCell>
        <mxCell id="ArgeGSA9S2a82x05cbbP-46" style="edgeStyle=orthogonalEdgeStyle;rounded=0;orthogonalLoop=1;jettySize=auto;html=1;entryX=0;entryY=0.5;entryDx=0;entryDy=0;entryPerimeter=0;" parent="1" source="ArgeGSA9S2a82x05cbbP-42" target="ArgeGSA9S2a82x05cbbP-45" edge="1">
          <mxGeometry relative="1" as="geometry" />
        </mxCell>
        <mxCell id="ArgeGSA9S2a82x05cbbP-42" value="Система предлогает&lt;br&gt;алтернативу" style="rounded=1;whiteSpace=wrap;html=1;container=1;collapsible=0;absoluteArcSize=1;arcSize=20;childLayout=stackLayout;horizontal=1;horizontalStack=0;resizeParent=1;resizeParentMax=0;resizeLast=0;" parent="1" vertex="1">
          <mxGeometry x="240" y="430" width="120" height="70" as="geometry" />
        </mxCell>
        <mxCell id="ArgeGSA9S2a82x05cbbP-44" value="нет" style="text;html=1;align=center;verticalAlign=middle;resizable=0;points=[];autosize=1;strokeColor=none;fillColor=none;" parent="1" vertex="1">
          <mxGeometry x="260" y="370" width="40" height="30" as="geometry" />
        </mxCell>
        <mxCell id="ArgeGSA9S2a82x05cbbP-51" style="edgeStyle=orthogonalEdgeStyle;rounded=0;orthogonalLoop=1;jettySize=auto;html=1;exitX=1;exitY=0.5;exitDx=0;exitDy=0;exitPerimeter=0;entryX=0;entryY=0.5;entryDx=0;entryDy=0;" parent="1" source="ArgeGSA9S2a82x05cbbP-45" target="ArgeGSA9S2a82x05cbbP-53" edge="1">
          <mxGeometry relative="1" as="geometry">
            <mxPoint x="600" y="465" as="targetPoint" />
          </mxGeometry>
        </mxCell>
        <mxCell id="ArgeGSA9S2a82x05cbbP-71" style="edgeStyle=orthogonalEdgeStyle;rounded=0;orthogonalLoop=1;jettySize=auto;html=1;entryX=0.5;entryY=1;entryDx=0;entryDy=0;entryPerimeter=0;" parent="1" source="ArgeGSA9S2a82x05cbbP-45" target="ArgeGSA9S2a82x05cbbP-69" edge="1">
          <mxGeometry relative="1" as="geometry" />
        </mxCell>
        <mxCell id="ArgeGSA9S2a82x05cbbP-45" value="" style="points=[[0.25,0.25,0],[0.5,0,0],[0.75,0.25,0],[1,0.5,0],[0.75,0.75,0],[0.5,1,0],[0.25,0.75,0],[0,0.5,0]];shape=mxgraph.bpmn.gateway2;html=1;verticalLabelPosition=bottom;labelBackgroundColor=#ffffff;verticalAlign=top;align=center;perimeter=rhombusPerimeter;outlineConnect=0;outline=end;symbol=general;" parent="1" vertex="1">
          <mxGeometry x="449" y="440" width="50" height="50" as="geometry" />
        </mxCell>
        <mxCell id="ArgeGSA9S2a82x05cbbP-47" value="клиента&lt;br&gt;устраивает альтернатива?" style="text;html=1;align=center;verticalAlign=middle;resizable=0;points=[];autosize=1;strokeColor=none;fillColor=none;" parent="1" vertex="1">
          <mxGeometry x="389" y="490" width="170" height="40" as="geometry" />
        </mxCell>
        <mxCell id="ArgeGSA9S2a82x05cbbP-49" value="да" style="text;html=1;align=center;verticalAlign=middle;resizable=0;points=[];autosize=1;strokeColor=none;fillColor=none;" parent="1" vertex="1">
          <mxGeometry x="470" y="410" width="40" height="30" as="geometry" />
        </mxCell>
        <mxCell id="ArgeGSA9S2a82x05cbbP-52" value="нет" style="text;html=1;align=center;verticalAlign=middle;resizable=0;points=[];autosize=1;strokeColor=none;fillColor=none;" parent="1" vertex="1">
          <mxGeometry x="490" y="455" width="40" height="30" as="geometry" />
        </mxCell>
        <mxCell id="ArgeGSA9S2a82x05cbbP-58" style="edgeStyle=orthogonalEdgeStyle;rounded=0;orthogonalLoop=1;jettySize=auto;html=1;exitX=1;exitY=0.5;exitDx=0;exitDy=0;entryX=0;entryY=0.5;entryDx=0;entryDy=0;entryPerimeter=0;" parent="1" source="ArgeGSA9S2a82x05cbbP-53" target="ArgeGSA9S2a82x05cbbP-56" edge="1">
          <mxGeometry relative="1" as="geometry" />
        </mxCell>
        <mxCell id="ArgeGSA9S2a82x05cbbP-53" value="Поблагодарить клиента&lt;br&gt;и извиниться&lt;br&gt;за отсутствие&amp;nbsp;&lt;br&gt;нужного номера&lt;br&gt;" style="rounded=1;whiteSpace=wrap;html=1;container=1;collapsible=0;absoluteArcSize=1;arcSize=20;childLayout=stackLayout;horizontal=1;horizontalStack=0;resizeParent=1;resizeParentMax=0;resizeLast=0;" parent="1" vertex="1">
          <mxGeometry x="550" y="430" width="120" height="70" as="geometry" />
        </mxCell>
        <mxCell id="ArgeGSA9S2a82x05cbbP-56" value="" style="points=[[0.145,0.145,0],[0.5,0,0],[0.855,0.145,0],[1,0.5,0],[0.855,0.855,0],[0.5,1,0],[0.145,0.855,0],[0,0.5,0]];shape=mxgraph.bpmn.event;html=1;verticalLabelPosition=bottom;labelBackgroundColor=#ffffff;verticalAlign=top;align=center;perimeter=ellipsePerimeter;outlineConnect=0;aspect=fixed;outline=end;symbol=terminate2;strokeColor=#FF3333;" parent="1" vertex="1">
          <mxGeometry x="700" y="440" width="50" height="50" as="geometry" />
        </mxCell>
        <mxCell id="ArgeGSA9S2a82x05cbbP-66" style="edgeStyle=orthogonalEdgeStyle;rounded=0;orthogonalLoop=1;jettySize=auto;html=1;entryX=0;entryY=0.5;entryDx=0;entryDy=0;" parent="1" source="ArgeGSA9S2a82x05cbbP-59" target="ArgeGSA9S2a82x05cbbP-63" edge="1">
          <mxGeometry relative="1" as="geometry">
            <Array as="points">
              <mxPoint x="955" y="325" />
            </Array>
          </mxGeometry>
        </mxCell>
        <mxCell id="ArgeGSA9S2a82x05cbbP-68" style="edgeStyle=orthogonalEdgeStyle;rounded=0;orthogonalLoop=1;jettySize=auto;html=1;entryX=0;entryY=0.571;entryDx=0;entryDy=0;entryPerimeter=0;" parent="1" source="ArgeGSA9S2a82x05cbbP-59" target="ArgeGSA9S2a82x05cbbP-67" edge="1">
          <mxGeometry relative="1" as="geometry">
            <Array as="points">
              <mxPoint x="955" y="460" />
            </Array>
          </mxGeometry>
        </mxCell>
        <mxCell id="ArgeGSA9S2a82x05cbbP-59" value="" style="points=[[0.25,0.25,0],[0.5,0,0],[0.75,0.25,0],[1,0.5,0],[0.75,0.75,0],[0.5,1,0],[0.25,0.75,0],[0,0.5,0]];shape=mxgraph.bpmn.gateway2;html=1;verticalLabelPosition=bottom;labelBackgroundColor=#ffffff;verticalAlign=top;align=center;perimeter=rhombusPerimeter;outlineConnect=0;outline=end;symbol=general;" parent="1" vertex="1">
          <mxGeometry x="930" y="365" width="50" height="50" as="geometry" />
        </mxCell>
        <mxCell id="ArgeGSA9S2a82x05cbbP-96" style="edgeStyle=orthogonalEdgeStyle;rounded=0;orthogonalLoop=1;jettySize=auto;html=1;exitX=1;exitY=0.5;exitDx=0;exitDy=0;entryX=0;entryY=0.571;entryDx=0;entryDy=0;entryPerimeter=0;" parent="1" source="ArgeGSA9S2a82x05cbbP-63" target="ArgeGSA9S2a82x05cbbP-94" edge="1">
          <mxGeometry relative="1" as="geometry">
            <mxPoint x="1630" y="360" as="targetPoint" />
            <Array as="points">
              <mxPoint x="1400" y="360" />
            </Array>
          </mxGeometry>
        </mxCell>
        <mxCell id="ArgeGSA9S2a82x05cbbP-63" value="оффлайн&lt;br&gt;оплата" style="rounded=1;whiteSpace=wrap;html=1;container=1;collapsible=0;absoluteArcSize=1;arcSize=20;childLayout=stackLayout;horizontal=1;horizontalStack=0;resizeParent=1;resizeParentMax=0;resizeLast=0;" parent="1" vertex="1">
          <mxGeometry x="1280" y="295" width="120" height="70" as="geometry" />
        </mxCell>
        <mxCell id="ArgeGSA9S2a82x05cbbP-87" style="edgeStyle=orthogonalEdgeStyle;rounded=0;orthogonalLoop=1;jettySize=auto;html=1;exitX=1;exitY=0.5;exitDx=0;exitDy=0;" parent="1" source="ArgeGSA9S2a82x05cbbP-67" target="ArgeGSA9S2a82x05cbbP-86" edge="1">
          <mxGeometry relative="1" as="geometry" />
        </mxCell>
        <mxCell id="ArgeGSA9S2a82x05cbbP-67" value="онлайн&lt;br&gt;оплата" style="rounded=1;whiteSpace=wrap;html=1;container=1;collapsible=0;absoluteArcSize=1;arcSize=20;childLayout=stackLayout;horizontal=1;horizontalStack=0;resizeParent=1;resizeParentMax=0;resizeLast=0;" parent="1" vertex="1">
          <mxGeometry x="1040" y="420" width="120" height="70" as="geometry" />
        </mxCell>
        <mxCell id="ArgeGSA9S2a82x05cbbP-75" style="edgeStyle=orthogonalEdgeStyle;rounded=0;orthogonalLoop=1;jettySize=auto;html=1;exitX=1;exitY=0.5;exitDx=0;exitDy=0;exitPerimeter=0;entryX=0.008;entryY=0.357;entryDx=0;entryDy=0;entryPerimeter=0;" parent="1" source="ArgeGSA9S2a82x05cbbP-69" target="ArgeGSA9S2a82x05cbbP-39" edge="1">
          <mxGeometry relative="1" as="geometry">
            <Array as="points">
              <mxPoint x="499" y="380" />
            </Array>
          </mxGeometry>
        </mxCell>
        <mxCell id="ArgeGSA9S2a82x05cbbP-78" style="edgeStyle=orthogonalEdgeStyle;rounded=0;orthogonalLoop=1;jettySize=auto;html=1;entryX=0;entryY=0.5;entryDx=0;entryDy=0;" parent="1" source="ArgeGSA9S2a82x05cbbP-69" target="ArgeGSA9S2a82x05cbbP-77" edge="1">
          <mxGeometry relative="1" as="geometry">
            <Array as="points">
              <mxPoint x="474" y="305" />
            </Array>
          </mxGeometry>
        </mxCell>
        <mxCell id="ArgeGSA9S2a82x05cbbP-69" value="" style="points=[[0.25,0.25,0],[0.5,0,0],[0.75,0.25,0],[1,0.5,0],[0.75,0.75,0],[0.5,1,0],[0.25,0.75,0],[0,0.5,0]];shape=mxgraph.bpmn.gateway2;html=1;verticalLabelPosition=bottom;labelBackgroundColor=#ffffff;verticalAlign=top;align=center;perimeter=rhombusPerimeter;outlineConnect=0;outline=end;symbol=general;" parent="1" vertex="1">
          <mxGeometry x="449" y="320" width="50" height="50" as="geometry" />
        </mxCell>
        <mxCell id="ArgeGSA9S2a82x05cbbP-72" value="Клиент&amp;nbsp;&lt;br&gt;постоянник?" style="text;html=1;align=center;verticalAlign=middle;resizable=0;points=[];autosize=1;strokeColor=none;fillColor=none;" parent="1" vertex="1">
          <mxGeometry x="389" y="290" width="90" height="40" as="geometry" />
        </mxCell>
        <mxCell id="ArgeGSA9S2a82x05cbbP-76" value="нет" style="text;html=1;align=center;verticalAlign=middle;resizable=0;points=[];autosize=1;strokeColor=none;fillColor=none;" parent="1" vertex="1">
          <mxGeometry x="490" y="325" width="40" height="30" as="geometry" />
        </mxCell>
        <mxCell id="ArgeGSA9S2a82x05cbbP-85" style="edgeStyle=orthogonalEdgeStyle;rounded=0;orthogonalLoop=1;jettySize=auto;html=1;entryX=0.5;entryY=0;entryDx=0;entryDy=0;" parent="1" source="ArgeGSA9S2a82x05cbbP-77" target="ArgeGSA9S2a82x05cbbP-39" edge="1">
          <mxGeometry relative="1" as="geometry" />
        </mxCell>
        <mxCell id="ArgeGSA9S2a82x05cbbP-77" value="Система предлагает скидку" style="rounded=1;whiteSpace=wrap;html=1;container=1;collapsible=0;absoluteArcSize=1;arcSize=20;childLayout=stackLayout;horizontal=1;horizontalStack=0;resizeParent=1;resizeParentMax=0;resizeLast=0;" parent="1" vertex="1">
          <mxGeometry x="610" y="270" width="120" height="70" as="geometry" />
        </mxCell>
        <mxCell id="ArgeGSA9S2a82x05cbbP-79" value="да" style="text;html=1;align=center;verticalAlign=middle;resizable=0;points=[];autosize=1;strokeColor=none;fillColor=none;" parent="1" vertex="1">
          <mxGeometry x="490" y="280" width="40" height="30" as="geometry" />
        </mxCell>
        <mxCell id="ArgeGSA9S2a82x05cbbP-91" style="edgeStyle=orthogonalEdgeStyle;rounded=0;orthogonalLoop=1;jettySize=auto;html=1;exitX=1;exitY=0.5;exitDx=0;exitDy=0;entryX=0;entryY=0.5;entryDx=0;entryDy=0;" parent="1" source="ArgeGSA9S2a82x05cbbP-86" target="ArgeGSA9S2a82x05cbbP-88" edge="1">
          <mxGeometry relative="1" as="geometry" />
        </mxCell>
        <mxCell id="ArgeGSA9S2a82x05cbbP-86" value="Предупредить&lt;br&gt;клиента&lt;br&gt;об отмене&lt;br&gt;брони только&amp;nbsp;&lt;br&gt;до оплаты" style="rounded=1;whiteSpace=wrap;html=1;container=1;collapsible=0;absoluteArcSize=1;arcSize=20;childLayout=stackLayout;horizontal=1;horizontalStack=0;resizeParent=1;resizeParentMax=0;resizeLast=0;" parent="1" vertex="1">
          <mxGeometry x="1200" y="420" width="120" height="70" as="geometry" />
        </mxCell>
        <mxCell id="ArgeGSA9S2a82x05cbbP-93" style="edgeStyle=orthogonalEdgeStyle;rounded=0;orthogonalLoop=1;jettySize=auto;html=1;exitX=1;exitY=0.5;exitDx=0;exitDy=0;entryX=0;entryY=0.5;entryDx=0;entryDy=0;" parent="1" source="ArgeGSA9S2a82x05cbbP-88" target="ArgeGSA9S2a82x05cbbP-92" edge="1">
          <mxGeometry relative="1" as="geometry" />
        </mxCell>
        <mxCell id="ArgeGSA9S2a82x05cbbP-88" value="Система предлагает&lt;br&gt;внести данные для&lt;br&gt;оплаты&amp;nbsp;" style="rounded=1;whiteSpace=wrap;html=1;container=1;collapsible=0;absoluteArcSize=1;arcSize=20;childLayout=stackLayout;horizontal=1;horizontalStack=0;resizeParent=1;resizeParentMax=0;resizeLast=0;" parent="1" vertex="1">
          <mxGeometry x="1350" y="420" width="120" height="70" as="geometry" />
        </mxCell>
        <mxCell id="ArgeGSA9S2a82x05cbbP-95" style="edgeStyle=orthogonalEdgeStyle;rounded=0;orthogonalLoop=1;jettySize=auto;html=1;exitX=1;exitY=0.5;exitDx=0;exitDy=0;entryX=0.5;entryY=1;entryDx=0;entryDy=0;" parent="1" source="ArgeGSA9S2a82x05cbbP-92" target="ArgeGSA9S2a82x05cbbP-94" edge="1">
          <mxGeometry relative="1" as="geometry" />
        </mxCell>
        <mxCell id="ArgeGSA9S2a82x05cbbP-92" value="Получение оплаты.." style="rounded=1;whiteSpace=wrap;html=1;container=1;collapsible=0;absoluteArcSize=1;arcSize=20;childLayout=stackLayout;horizontal=1;horizontalStack=0;resizeParent=1;resizeParentMax=0;resizeLast=0;" parent="1" vertex="1">
          <mxGeometry x="1500" y="420" width="120" height="70" as="geometry" />
        </mxCell>
        <mxCell id="ArgeGSA9S2a82x05cbbP-98" style="edgeStyle=orthogonalEdgeStyle;rounded=0;orthogonalLoop=1;jettySize=auto;html=1;entryX=0.5;entryY=0;entryDx=0;entryDy=0;" parent="1" source="ArgeGSA9S2a82x05cbbP-94" target="ArgeGSA9S2a82x05cbbP-97" edge="1">
          <mxGeometry relative="1" as="geometry">
            <Array as="points">
              <mxPoint x="1810" y="355" />
              <mxPoint x="1810" y="640" />
              <mxPoint x="300" y="640" />
            </Array>
          </mxGeometry>
        </mxCell>
        <mxCell id="ArgeGSA9S2a82x05cbbP-94" value="Подтверждение&amp;nbsp;&lt;br&gt;бронирование" style="rounded=1;whiteSpace=wrap;html=1;container=1;collapsible=0;absoluteArcSize=1;arcSize=20;childLayout=stackLayout;horizontal=1;horizontalStack=0;resizeParent=1;resizeParentMax=0;resizeLast=0;" parent="1" vertex="1">
          <mxGeometry x="1640" y="320" width="120" height="70" as="geometry" />
        </mxCell>
        <mxCell id="ArgeGSA9S2a82x05cbbP-101" style="edgeStyle=orthogonalEdgeStyle;rounded=0;orthogonalLoop=1;jettySize=auto;html=1;entryX=0.466;entryY=0.003;entryDx=0;entryDy=0;entryPerimeter=0;" parent="1" source="ArgeGSA9S2a82x05cbbP-97" target="ArgeGSA9S2a82x05cbbP-100" edge="1">
          <mxGeometry relative="1" as="geometry" />
        </mxCell>
        <mxCell id="ArgeGSA9S2a82x05cbbP-97" value="Система направляет информацию в службу&lt;br&gt;бронирования" style="rounded=1;whiteSpace=wrap;html=1;container=1;collapsible=0;absoluteArcSize=1;arcSize=20;childLayout=stackLayout;horizontal=1;horizontalStack=0;resizeParent=1;resizeParentMax=0;resizeLast=0;" parent="1" vertex="1">
          <mxGeometry x="240" y="680" width="120" height="70" as="geometry" />
        </mxCell>
        <mxCell id="ArgeGSA9S2a82x05cbbP-103" style="edgeStyle=orthogonalEdgeStyle;rounded=0;orthogonalLoop=1;jettySize=auto;html=1;entryX=0;entryY=0.5;entryDx=0;entryDy=0;" parent="1" source="ArgeGSA9S2a82x05cbbP-100" target="ArgeGSA9S2a82x05cbbP-102" edge="1">
          <mxGeometry relative="1" as="geometry" />
        </mxCell>
        <mxCell id="ArgeGSA9S2a82x05cbbP-100" value="Система формирует&lt;br&gt;информацию о&amp;nbsp;&lt;br&gt;бронирование&lt;br&gt;и направляет клиенту на эл.почтую" style="rounded=1;whiteSpace=wrap;html=1;container=1;collapsible=0;absoluteArcSize=1;arcSize=20;childLayout=stackLayout;horizontal=1;horizontalStack=0;resizeParent=1;resizeParentMax=0;resizeLast=0;" parent="1" vertex="1">
          <mxGeometry x="230" y="810" width="150" height="70" as="geometry" />
        </mxCell>
        <mxCell id="ArgeGSA9S2a82x05cbbP-105" style="edgeStyle=orthogonalEdgeStyle;rounded=0;orthogonalLoop=1;jettySize=auto;html=1;exitX=1;exitY=0.5;exitDx=0;exitDy=0;entryX=0;entryY=0.5;entryDx=0;entryDy=0;entryPerimeter=0;" parent="1" source="ArgeGSA9S2a82x05cbbP-102" target="ArgeGSA9S2a82x05cbbP-104" edge="1">
          <mxGeometry relative="1" as="geometry" />
        </mxCell>
        <mxCell id="ArgeGSA9S2a82x05cbbP-102" value="Клиент успешно&lt;br&gt;заселяется" style="rounded=1;whiteSpace=wrap;html=1;container=1;collapsible=0;absoluteArcSize=1;arcSize=20;childLayout=stackLayout;horizontal=1;horizontalStack=0;resizeParent=1;resizeParentMax=0;resizeLast=0;" parent="1" vertex="1">
          <mxGeometry x="450" y="810" width="120" height="70" as="geometry" />
        </mxCell>
        <mxCell id="ArgeGSA9S2a82x05cbbP-104" value="" style="points=[[0.145,0.145,0],[0.5,0,0],[0.855,0.145,0],[1,0.5,0],[0.855,0.855,0],[0.5,1,0],[0.145,0.855,0],[0,0.5,0]];shape=mxgraph.bpmn.event;html=1;verticalLabelPosition=bottom;labelBackgroundColor=#ffffff;verticalAlign=top;align=center;perimeter=ellipsePerimeter;outlineConnect=0;aspect=fixed;outline=end;symbol=terminate2;strokeColor=#FF3333;" parent="1" vertex="1">
          <mxGeometry x="630" y="820" width="50" height="50" as="geometry" />
        </mxCell>
      </root>
    </mxGraphModel>
  </diagram>
</mxfile>
